<svg width="68" height="68" viewBox="0 0 68 68" fill="none" xmlns="http://www.w3.org/2000/svg">
<circle cx="33.6993" cy="33.6993" r="33.6993" fill="#FDF7D6"/>
<path d="M34.318 36.5017H42.3237C43.4094 36.5171 43.4094 34.8809 42.3237 34.8962H34.318C33.8653 34.8898 33.4971 35.259 33.5041 35.7066C33.5121 36.1542 33.8751 36.5078 34.318 36.5017Z" fill="#9F6D17"/>
<path d="M34.318 41.318H42.3237C43.4094 41.3333 43.4094 39.697 42.3237 39.7124H34.318C33.8653 39.706 33.4971 40.0752 33.5041 40.5228C33.5121 40.9705 33.8751 41.3241 34.318 41.318Z" fill="#9F6D17"/>
<path d="M31.8986 34.0931C31.8986 33.8802 31.814 33.6761 31.6635 33.5255C31.5129 33.375 31.3087 33.2904 31.0958 33.2904H24.6732C24.4603 33.2904 24.2561 33.375 24.1055 33.5255C23.955 33.6761 23.8704 33.8802 23.8704 34.0931V42.1198C23.8704 42.3327 23.955 42.5368 24.1055 42.6874C24.2561 42.8379 24.4603 42.9225 24.6732 42.9225H31.0958C31.3087 42.9225 31.5129 42.8379 31.6635 42.6874C31.814 42.5368 31.8986 42.3327 31.8986 42.1198V34.0931ZM30.293 34.8958V41.3171H25.476V34.8958H30.293Z" fill="#9F6D17"/>
<path d="M43.1382 24.4612C43.1382 24.2484 43.0536 24.0442 42.9031 23.8937C42.7525 23.7432 42.5483 23.6586 42.3354 23.6586H24.6732C24.4603 23.6586 24.2561 23.7432 24.1055 23.8937C23.955 24.0442 23.8704 24.2484 23.8704 24.4612V30.8825C23.8704 31.0954 23.955 31.2995 24.1055 31.4501C24.2561 31.6006 24.4603 31.6852 24.6732 31.6852H42.3354C42.5483 31.6852 42.7525 31.6006 42.9031 31.4501C43.0536 31.2995 43.1382 31.0954 43.1382 30.8825V24.4612ZM41.5326 25.2639V30.0799H25.476V25.2639H41.5326Z" fill="#9F6D17"/>
</svg>
