<svg width="68" height="68" viewBox="0 0 68 68" fill="none" xmlns="http://www.w3.org/2000/svg">
<circle cx="33.6993" cy="34.3007" r="33.6993" fill="#DADFFE"/>
<path d="M17.5852 18.476C17.3846 18.4924 17.1973 18.5876 17.0609 18.7424C16.9245 18.8972 16.8491 19.1001 16.8497 19.3107V41.0124C16.8488 41.2208 16.9225 41.4221 17.0563 41.5765C17.1901 41.731 17.3743 41.8275 17.5727 41.8471C17.5976 41.8483 17.6226 41.8483 17.6475 41.8471H29.9761L27.5079 47.6898H25.6256C25.6006 47.6886 25.5757 47.6886 25.5508 47.6898C25.446 47.6949 25.3432 47.7216 25.2482 47.7683C25.1533 47.815 25.0681 47.8808 24.9975 47.9619C24.9268 48.043 24.8722 48.138 24.8366 48.2412C24.8011 48.3444 24.7853 48.454 24.7902 48.5636C24.7951 48.6733 24.8206 48.7808 24.8652 48.8801C24.9099 48.9794 24.9728 49.0686 25.0504 49.1424C25.1279 49.2163 25.2187 49.2735 25.3174 49.3107C25.416 49.3479 25.5208 49.3643 25.6256 49.3592H43.1773C43.283 49.3607 43.388 49.3403 43.4861 49.2991C43.5842 49.2578 43.6735 49.1966 43.7488 49.1189C43.8241 49.0413 43.8839 48.9487 43.9247 48.8467C43.9655 48.7446 43.9865 48.6351 43.9865 48.5245C43.9865 48.4139 43.9655 48.3044 43.9247 48.2023C43.8839 48.1003 43.8241 48.0077 43.7488 47.9301C43.6735 47.8524 43.5842 47.7912 43.4861 47.7499C43.388 47.7087 43.283 47.6883 43.1773 47.6898H41.295L38.8268 41.8471H51.1554C51.367 41.847 51.5699 41.7591 51.7195 41.6026C51.8691 41.446 51.9532 41.2337 51.9532 41.0124V19.3107C51.9532 19.0893 51.8691 18.877 51.7195 18.7205C51.5699 18.5639 51.367 18.476 51.1554 18.476H17.6475C17.6267 18.4751 17.6059 18.4751 17.5852 18.476ZM18.4453 20.1453H50.3576V40.1777H18.4453V20.1453ZM22.4343 22.6494C21.5531 22.6494 20.8387 23.3968 20.8387 24.3187C20.8387 25.2407 21.5531 25.9881 22.4343 25.9881C23.3156 25.9881 24.0299 25.2407 24.0299 24.3187C24.0299 23.3968 23.3156 22.6494 22.4343 22.6494ZM26.3486 23.4841C26.2438 23.4892 26.141 23.5158 26.0461 23.5625C25.9511 23.6092 25.8659 23.675 25.7953 23.7562C25.7247 23.8373 25.67 23.9322 25.6344 24.0354C25.5989 24.1387 25.5831 24.2483 25.588 24.3579C25.5929 24.4675 25.6184 24.575 25.6631 24.6744C25.7077 24.7737 25.7706 24.8628 25.8482 24.9367C25.9257 25.0106 26.0165 25.0677 26.1152 25.1049C26.2139 25.1421 26.3186 25.1586 26.4234 25.1534H31.2102C31.3159 25.155 31.4209 25.1346 31.519 25.0933C31.6171 25.0521 31.7064 24.9908 31.7817 24.9132C31.857 24.8355 31.9167 24.743 31.9576 24.6409C31.9984 24.5389 32.0194 24.4294 32.0194 24.3187C32.0194 24.2081 31.9984 24.0986 31.9576 23.9966C31.9167 23.8945 31.857 23.802 31.7817 23.7243C31.7064 23.6467 31.6171 23.5854 31.519 23.5442C31.4209 23.5029 31.3159 23.4825 31.2102 23.4841H26.4234C26.3984 23.4828 26.3735 23.4828 26.3486 23.4841ZM34.3266 23.4841C34.2219 23.4909 34.1194 23.5193 34.0251 23.5676C33.9308 23.6158 33.8466 23.6831 33.7771 23.7654C33.6368 23.9317 33.5655 24.1495 33.5787 24.3709C33.5919 24.5923 33.6887 24.7991 33.8476 24.9458C34.0066 25.0926 34.2148 25.1673 34.4264 25.1534H47.1663C47.2721 25.155 47.377 25.1346 47.4751 25.0933C47.5732 25.0521 47.6625 24.9908 47.7378 24.9132C47.8131 24.8355 47.8729 24.743 47.9137 24.6409C47.9545 24.5389 47.9755 24.4294 47.9755 24.3187C47.9755 24.2081 47.9545 24.0986 47.9137 23.9966C47.8729 23.8945 47.8131 23.802 47.7378 23.7243C47.6625 23.6467 47.5732 23.5854 47.4751 23.5442C47.377 23.5029 47.2721 23.4825 47.1663 23.4841H34.4264C34.3932 23.4819 34.3598 23.4819 34.3266 23.4841ZM22.4343 28.4922C21.5531 28.4922 20.8387 29.2396 20.8387 30.1615C20.8387 31.0835 21.5531 31.8309 22.4343 31.8309C23.3156 31.8309 24.0299 31.0835 24.0299 30.1615C24.0299 29.2396 23.3156 28.4922 22.4343 28.4922ZM26.3486 29.3268C26.2438 29.332 26.141 29.3586 26.0461 29.4053C25.9511 29.452 25.8659 29.5178 25.7953 29.5989C25.7247 29.6801 25.67 29.775 25.6344 29.8782C25.5989 29.9815 25.5831 30.091 25.588 30.2006C25.5929 30.3103 25.6184 30.4178 25.6631 30.5171C25.7077 30.6164 25.7706 30.7056 25.8482 30.7795C25.9257 30.8533 26.0165 30.9105 26.1152 30.9477C26.2139 30.9849 26.3186 31.0014 26.4234 30.9962H31.2102C31.3159 30.9978 31.4209 30.9773 31.519 30.9361C31.6171 30.8948 31.7064 30.8336 31.7817 30.7559C31.857 30.6783 31.9167 30.5857 31.9576 30.4837C31.9984 30.3816 32.0194 30.2721 32.0194 30.1615C32.0194 30.0509 31.9984 29.9414 31.9576 29.8393C31.9167 29.7373 31.857 29.6448 31.7817 29.5671C31.7064 29.4894 31.6171 29.4282 31.519 29.3869C31.4209 29.3457 31.3159 29.3253 31.2102 29.3268H26.4234C26.3984 29.3256 26.3735 29.3256 26.3486 29.3268ZM34.3266 29.3268C34.115 29.3407 33.9174 29.4419 33.7771 29.6082C33.6368 29.7745 33.5655 29.9923 33.5787 30.2137C33.5919 30.4351 33.6887 30.6419 33.8476 30.7886C34.0066 30.9354 34.2148 31.01 34.4264 30.9962H47.1663C47.2721 30.9978 47.377 30.9773 47.4751 30.9361C47.5732 30.8948 47.6625 30.8336 47.7378 30.7559C47.8131 30.6783 47.8729 30.5857 47.9137 30.4837C47.9545 30.3816 47.9755 30.2721 47.9755 30.1615C47.9755 30.0509 47.9545 29.9414 47.9137 29.8393C47.8729 29.7373 47.8131 29.6448 47.7378 29.5671C47.6625 29.4894 47.5732 29.4282 47.4751 29.3869C47.377 29.3457 47.2721 29.3253 47.1663 29.3268H34.4264C34.3932 29.3247 34.3598 29.3247 34.3266 29.3268ZM22.4343 34.3349C21.5531 34.3349 20.8387 35.0823 20.8387 36.0043C20.8387 36.9262 21.5531 37.6736 22.4343 37.6736C23.3156 37.6736 24.0299 36.9262 24.0299 36.0043C24.0299 35.0823 23.3156 34.3349 22.4343 34.3349ZM26.3486 35.1696C26.2438 35.1747 26.141 35.2014 26.0461 35.2481C25.9511 35.2948 25.8659 35.3605 25.7953 35.4417C25.7247 35.5228 25.67 35.6177 25.6344 35.721C25.5989 35.8242 25.5831 35.9338 25.588 36.0434C25.5929 36.153 25.6184 36.2606 25.6631 36.3599C25.7077 36.4592 25.7706 36.5483 25.8482 36.6222C25.9257 36.6961 26.0165 36.7533 26.1152 36.7905C26.2139 36.8276 26.3186 36.8441 26.4234 36.839H31.2102C31.3159 36.8405 31.4209 36.8201 31.519 36.7789C31.6171 36.7376 31.7064 36.6764 31.7817 36.5987C31.857 36.521 31.9167 36.4285 31.9576 36.3265C31.9984 36.2244 32.0194 36.1149 32.0194 36.0043C32.0194 35.8937 31.9984 35.7842 31.9576 35.6821C31.9167 35.5801 31.857 35.4875 31.7817 35.4099C31.7064 35.3322 31.6171 35.271 31.519 35.2297C31.4209 35.1885 31.3159 35.168 31.2102 35.1696H26.4234C26.3984 35.1684 26.3735 35.1684 26.3486 35.1696ZM34.3266 35.1696C34.2219 35.1765 34.1194 35.2048 34.0251 35.2531C33.9308 35.3014 33.8466 35.3686 33.7771 35.451C33.6368 35.6173 33.5655 35.8351 33.5787 36.0565C33.5919 36.2778 33.6887 36.4846 33.8476 36.6314C34.0066 36.7781 34.2148 36.8528 34.4264 36.839H47.1663C47.2721 36.8405 47.377 36.8201 47.4751 36.7789C47.5732 36.7376 47.6625 36.6764 47.7378 36.5987C47.8131 36.521 47.8729 36.4285 47.9137 36.3265C47.9545 36.2244 47.9755 36.1149 47.9755 36.0043C47.9755 35.8937 47.9545 35.7842 47.9137 35.6821C47.8729 35.5801 47.8131 35.4875 47.7378 35.4099C47.6625 35.3322 47.5732 35.271 47.4751 35.2297C47.377 35.1885 47.2721 35.168 47.1663 35.1696H34.4264C34.3932 35.1674 34.3598 35.1674 34.3266 35.1696ZM31.7338 41.8471H37.0691L39.5622 47.6898H29.2406L31.7338 41.8471Z" fill="#161E8B"/>
</svg>
