<svg width="68" height="68" viewBox="0 0 68 68" fill="none" xmlns="http://www.w3.org/2000/svg">
<circle cx="33.6993" cy="33.6993" r="33.6993" fill="#FDF7D6"/>
<path d="M37.4519 28.2061C37.4453 28.1686 37.4419 28.1301 37.4419 28.0907V20.3664C36.1701 20.8121 35.0574 21.4079 34.1023 22.1529V32.1972L37.4519 28.2061ZM38.4704 29.0703L34.8695 33.3608L44.6679 31.6334C44.7356 31.6215 44.8029 31.6202 44.8677 31.6284C45.5298 30.4776 45.9808 29.1701 46.2188 27.7044L38.4704 29.0703ZM30.5774 36.3971L32.7664 33.7889V23.4057C32.7059 23.474 32.6462 23.5432 32.5874 23.6132C29.2028 27.646 28.6506 33.5855 30.5774 36.3971ZM31.5206 37.3511C34.1234 39.0216 40.2688 37.284 43.7986 33.1429L33.5337 34.9525L31.5206 37.3511ZM44.8532 19.3874C42.565 19.3332 40.5409 19.5275 38.7778 19.9681V26.6263L44.8532 19.3874ZM45.8873 20.233L39.8063 27.4786L46.3424 26.3264C46.354 26.3244 46.3655 26.3226 46.377 26.3212C46.5027 24.5069 46.3404 22.4784 45.8873 20.233ZM29.6943 37.4493C27.1528 34.1939 27.7087 27.3484 31.5641 22.7547C34.5338 19.2162 39.4632 17.6845 46.2905 18.1136L46.782 18.1445L46.8978 18.6231C48.5059 25.2707 47.8532 30.3901 44.8835 33.9286C40.9319 38.6369 33.9008 40.625 30.6582 38.3786L27.8614 41.7111C27.6243 41.9936 27.203 42.0305 26.9204 41.7934C26.6378 41.5563 26.6009 41.1351 26.838 40.8526L29.6943 37.4493Z" fill="#9F6D17"/>
<path fill-rule="evenodd" clip-rule="evenodd" d="M30.4913 26.1632C29.8329 26.094 29.1455 26.0581 28.4377 26.0581C26.1314 26.0581 24.0422 26.4396 22.4626 27.1096C21.6728 27.4446 21.0053 27.8489 20.5039 28.3516C20.0025 28.8544 19.658 29.4989 19.658 30.2032V43.3701C19.658 44.0744 20.0025 44.7113 20.5039 45.2141C21.0053 45.7169 21.6728 46.1211 22.4626 46.4561C24.0422 47.1261 26.1314 47.5153 28.4377 47.5153C30.744 47.5153 32.8332 47.1261 34.4128 46.4561C35.2026 46.1211 35.8701 45.7169 36.3714 45.2141C36.8728 44.7113 37.2174 44.0744 37.2174 43.3701V38.429C36.7246 38.5569 36.2353 38.649 35.7541 38.7048V38.9812C35.7541 39.2195 35.6481 39.4748 35.3349 39.7889C35.0218 40.1029 34.5078 40.4357 33.8412 40.7185C32.5079 41.284 30.5762 41.6633 28.4377 41.6633C26.2992 41.6633 24.3674 41.284 23.0342 40.7185C22.3676 40.4357 21.8536 40.1029 21.5404 39.7889C21.2272 39.4748 21.1212 39.2195 21.1212 38.9812V36.9467C21.5125 37.2231 21.9607 37.4653 22.4626 37.6782C24.0422 38.3482 26.1314 38.7373 28.4377 38.7373C29.7737 38.7373 31.0368 38.6067 32.1702 38.3666C31.422 38.1049 30.7432 37.7141 30.1631 37.1907C29.6095 37.2451 29.0316 37.2743 28.4377 37.2743C26.2992 37.2743 24.3674 36.895 23.0342 36.3295C22.3676 36.0467 21.8536 35.7139 21.5404 35.3999C21.2272 35.0858 21.1212 34.8305 21.1212 34.5922V32.5654C21.5118 32.84 21.9631 33.0774 22.4626 33.2892C24.0422 33.9592 26.1314 34.3484 28.4377 34.3484C28.446 34.3484 28.4543 34.3484 28.4626 34.3484C28.3407 33.8799 28.2694 33.3897 28.2473 32.8844C26.1847 32.8626 24.3277 32.4892 23.0342 31.9405C22.3676 31.6578 21.8536 31.325 21.5404 31.0109C21.2272 30.6969 21.1212 30.4416 21.1212 30.2032C21.1212 29.9649 21.2272 29.702 21.5404 29.3879C21.8536 29.0739 22.3676 28.7411 23.0342 28.4583C24.3674 27.8928 26.2992 27.5211 28.4377 27.5211C28.8392 27.5211 29.2334 27.5342 29.6177 27.5592C29.8745 27.0872 30.166 26.6203 30.4913 26.1632ZM22.4626 42.0672C21.9607 41.8543 21.5125 41.6121 21.1212 41.3356V43.3701C21.1212 43.6085 21.2272 43.8638 21.5404 44.1778C21.8536 44.4918 22.3676 44.8247 23.0342 45.1074C24.3674 45.6729 26.2992 46.0523 28.4377 46.0523C30.5762 46.0523 32.5079 45.6729 33.8412 45.1074C34.5078 44.8247 35.0218 44.4918 35.3349 44.1778C35.6481 43.8638 35.7541 43.6085 35.7541 43.3701V41.3356C35.3629 41.6121 34.9147 41.8543 34.4128 42.0672C32.8332 42.7372 30.744 43.1263 28.4377 43.1263C26.1314 43.1263 24.0422 42.7372 22.4626 42.0672Z" fill="#9F6D17"/>
</svg>
