<svg width="69" height="68" viewBox="0 0 69 68" fill="none" xmlns="http://www.w3.org/2000/svg">
<circle cx="34.549" cy="33.6993" r="33.6993" fill="#FDF7D6"/>
<path d="M43.1008 20.8664L39.6704 24.1545C39.4794 23.97 39.2683 23.8058 39.0408 23.6648L38.9682 23.6259C38.3261 23.2329 37.5819 23.0228 36.8212 23.0196C36.3043 23.0215 35.7924 23.1164 35.3118 23.2994C35.1209 23.3745 34.9373 23.4655 34.7629 23.5715L34.6015 23.657L34.5208 23.7114C33.7487 23.2023 32.8171 22.9674 31.8851 23.0468C30.9531 23.1262 30.0787 23.515 29.4115 24.1467L25.9811 20.8508L16.2952 30.1787L19.7014 33.4824L20.8153 34.6095C20.9665 34.7543 21.1711 34.8355 21.3843 34.8355C21.5975 34.8355 21.8021 34.7543 21.9534 34.6095C22.1037 34.4639 22.1881 34.2669 22.1881 34.0615C22.1881 33.8561 22.1037 33.6591 21.9534 33.5135L25.6663 29.9378L27.0949 28.5619L29.9442 25.8179L30.5173 25.266C30.8724 24.9352 31.3241 24.717 31.8118 24.6406C32.2995 24.5641 32.7997 24.6332 33.2455 24.8385L29.3792 28.5619C28.9257 28.9992 28.671 29.5919 28.671 30.2098C28.671 30.8278 28.9257 31.4205 29.3792 31.8578L29.9442 32.4097C30.1692 32.6271 30.4365 32.7996 30.7308 32.9173C31.0251 33.035 31.3407 33.0956 31.6594 33.0956C31.9781 33.0956 32.2937 33.035 32.588 32.9173C32.8823 32.7996 33.1496 32.6271 33.3746 32.4097L37.37 28.5619L45.7644 36.6461C46.5716 37.4234 46.7007 38.2629 46.4989 38.4573L45.9259 39.0092C45.8321 39.0504 45.7303 39.0718 45.6272 39.0718C45.5242 39.0718 45.4223 39.0504 45.3286 39.0092C44.8388 38.8648 44.3983 38.5963 44.0533 38.2318L41.2524 35.5812C41.1772 35.5087 41.0878 35.4512 40.9895 35.412C40.8912 35.3727 40.7858 35.3526 40.6794 35.3526C40.5729 35.3526 40.4675 35.3727 40.3692 35.412C40.2709 35.4512 40.1815 35.5087 40.1063 35.5812C40.031 35.6536 39.9713 35.7397 39.9306 35.8344C39.8899 35.9291 39.8689 36.0306 39.8689 36.1331C39.8689 36.2356 39.8899 36.3371 39.9306 36.4318C39.9713 36.5264 40.031 36.6125 40.1063 36.685L42.9313 39.4056C43.7385 40.1829 43.8676 41.0224 43.6658 41.209L43.1008 41.7609C43.0068 41.8012 42.9051 41.822 42.8022 41.822C42.6993 41.822 42.5975 41.8012 42.5035 41.7609C42.0115 41.6164 41.5685 41.3481 41.2201 40.9836L38.3951 38.2629C38.2439 38.1182 38.0393 38.0369 37.8261 38.0369C37.6128 38.0369 37.4082 38.1182 37.257 38.2629C37.1814 38.3352 37.1213 38.4212 37.0803 38.5159C37.0394 38.6106 37.0183 38.7122 37.0183 38.8148C37.0183 38.9175 37.0394 39.0191 37.0803 39.1138C37.1213 39.2085 37.1814 39.2945 37.257 39.3667L40.074 42.0796C40.8811 42.8569 41.0184 43.6965 40.8166 43.8908L40.2435 44.4427C40.0417 44.6292 39.178 44.5126 38.3628 43.7275L35.5378 41.0147C35.3865 40.8699 35.182 40.7886 34.9687 40.7886C34.7555 40.7886 34.5509 40.8699 34.3997 41.0147C34.353 41.0627 34.3148 41.1179 34.2867 41.1779L34.1091 41.1235C34.2128 40.7382 34.2123 40.3338 34.1077 39.9487C34.0032 39.5637 33.798 39.2108 33.5118 38.9237L32.9387 38.3795C32.6564 38.1111 32.31 37.9136 31.9298 37.8043C32.05 37.4024 32.0557 36.9767 31.9464 36.5719C31.837 36.1671 31.6166 35.798 31.3083 35.5034L30.7352 34.9593C30.3242 34.5666 29.7806 34.3287 29.2031 34.2887C28.6256 34.2488 28.0524 34.4095 27.5873 34.7417C27.4686 34.4881 27.3047 34.2566 27.103 34.0576L26.5461 33.4824C26.092 33.0457 25.4766 32.8004 24.8349 32.8004C24.1932 32.8004 23.5778 33.0457 23.1237 33.4824L21.9776 34.5784C21.5241 35.0157 21.2694 35.6084 21.2694 36.2263C21.2694 36.8443 21.5241 37.437 21.9776 37.8743L22.5506 38.4262C22.9829 38.8358 23.5589 39.0744 24.165 39.0947C24.1804 39.6795 24.429 40.2362 24.8591 40.6493L25.4322 41.1935C25.8631 41.6059 26.4394 41.8473 27.0465 41.8697C27.0676 42.4534 27.3153 43.0082 27.7407 43.4244L28.3137 43.9763C28.7427 44.3905 29.3208 44.6299 29.928 44.6448C29.9435 45.2296 30.1921 45.7863 30.6222 46.1994L31.1953 46.7513C31.6503 47.1859 32.2656 47.4291 32.9064 47.4276C33.265 47.4282 33.6187 47.3484 33.9396 47.1944L34.4481 47.6841C35.1582 48.4248 36.1393 48.8707 37.1844 48.9279C37.4437 48.9247 37.6999 48.8723 37.9381 48.7736C38.1763 48.6749 38.392 48.5318 38.5727 48.3526L39.1458 47.8007C39.3639 47.5739 39.5241 47.3013 39.6138 47.0044C39.7035 46.7076 39.7201 46.3947 39.6623 46.0906C39.7716 46.1108 39.8822 46.1237 39.9933 46.1295C40.2571 46.137 40.5199 46.0941 40.7665 46.0034C41.013 45.9127 41.2385 45.7759 41.43 45.6009L41.995 45.049C42.2141 44.8244 42.3751 44.5532 42.4648 44.2574C42.5546 43.9616 42.5706 43.6495 42.5116 43.3467C42.6209 43.3668 42.7314 43.3798 42.8425 43.3855C43.3564 43.3887 43.8515 43.1992 44.2228 42.8569L44.7958 42.305C45.014 42.0782 45.1742 41.8056 45.2639 41.5087C45.3535 41.2119 45.3702 40.899 45.3124 40.5949C45.4217 40.6151 45.5323 40.628 45.6434 40.6338C45.9073 40.6421 46.1703 40.5997 46.417 40.5089C46.6637 40.4181 46.8891 40.2809 47.0801 40.1052L47.6451 39.5533C48.6056 38.6283 48.2828 36.8715 46.9106 35.5501L46.507 35.1614L38.5727 27.4659C38.6483 27.3936 38.7084 27.3076 38.7494 27.2129C38.7903 27.1182 38.8114 27.0166 38.8114 26.914C38.8114 26.8114 38.7903 26.7098 38.7494 26.615C38.7084 26.5203 38.6483 26.4343 38.5727 26.3621C38.4214 26.2173 38.2169 26.136 38.0036 26.136C37.7904 26.136 37.5858 26.2173 37.4346 26.3621L32.293 31.3136C32.1418 31.4584 31.9372 31.5397 31.724 31.5397C31.5107 31.5397 31.3062 31.4584 31.1549 31.3136L30.5818 30.7617C30.4315 30.6161 30.3471 30.4191 30.3471 30.2137C30.3471 30.0084 30.4315 29.8114 30.5818 29.6657L35.1503 25.266C35.6104 24.8404 36.2236 24.6027 36.8615 24.6027C37.4995 24.6027 38.1126 24.8404 38.5727 25.266L39.1458 25.8179L41.995 28.5619L43.4156 29.9378L47.1285 33.5135L46.5554 34.0576C46.4035 34.2029 46.3176 34.4005 46.3169 34.6068C46.3161 34.813 46.4005 35.0111 46.5514 35.1575C46.7023 35.3039 46.9074 35.3865 47.1216 35.3873C47.3358 35.388 47.5415 35.3068 47.6935 35.1614L48.2666 34.6095L49.3724 33.4824L52.8028 30.1787L43.1008 20.8664ZM18.5552 30.1943L25.973 23.0507L28.2572 25.2505L24.5524 28.8184L23.1237 30.1943L20.8153 32.4097L18.5552 30.1943ZM23.1237 36.7938C23.0481 36.7215 22.988 36.6356 22.9471 36.5408C22.9061 36.4461 22.885 36.3445 22.885 36.2419C22.885 36.1393 22.9061 36.0377 22.9471 35.943C22.988 35.8482 23.0481 35.7623 23.1237 35.69L24.2618 34.594C24.3369 34.5211 24.4261 34.4633 24.5245 34.4238C24.6228 34.3843 24.7283 34.364 24.8349 34.364C24.9415 34.364 25.047 34.3843 25.1453 34.4238C25.2437 34.4633 25.3329 34.5211 25.408 34.594L25.973 35.1459C26.1233 35.2915 26.2077 35.4885 26.2077 35.6939C26.2077 35.8992 26.1233 36.0962 25.973 36.2419L24.851 37.369C24.6998 37.5138 24.4952 37.5951 24.282 37.5951C24.0688 37.5951 23.8642 37.5138 23.713 37.369L23.1237 36.7938ZM25.973 39.5378C25.8227 39.3921 25.7383 39.1951 25.7383 38.9897C25.7383 38.7844 25.8227 38.5874 25.973 38.4417L27.1191 37.369L28.4671 36.0709C28.5421 35.998 28.6314 35.9402 28.7298 35.9007C28.8281 35.8613 28.9336 35.8409 29.0402 35.8409C29.1467 35.8409 29.2522 35.8613 29.3506 35.9007C29.4489 35.9402 29.5382 35.998 29.6133 36.0709L30.1783 36.6228C30.3286 36.7684 30.413 36.9654 30.413 37.1708C30.413 37.3762 30.3286 37.5732 30.1783 37.7188L29.5164 38.364L27.6842 40.1208C27.5329 40.2655 27.3284 40.3468 27.1151 40.3468C26.9019 40.3468 26.6973 40.2655 26.5461 40.1208L25.973 39.5378ZM28.8303 42.2895C28.7547 42.2172 28.6946 42.1313 28.6536 42.0365C28.6127 41.9418 28.5916 41.8402 28.5916 41.7376C28.5916 41.635 28.6127 41.5334 28.6536 41.4386C28.6946 41.3439 28.7547 41.2579 28.8303 41.1857L30.6545 39.4289C30.7299 39.3569 30.8194 39.2999 30.9177 39.2612C31.016 39.2225 31.1213 39.2029 31.2276 39.2035C31.3338 39.2029 31.4391 39.2225 31.5374 39.2612C31.6358 39.2999 31.7252 39.3569 31.8006 39.4289L32.3657 39.9808C32.516 40.1265 32.6004 40.3235 32.6004 40.5288C32.6004 40.7342 32.516 40.9312 32.3657 41.0769L31.6796 41.7376L30.5415 42.8414C30.3903 42.9862 30.1857 43.0674 29.9724 43.0674C29.7592 43.0674 29.5546 42.9862 29.4034 42.8414L28.8303 42.2895ZM32.2527 45.5854L31.6796 45.0335C31.5292 44.8878 31.4449 44.6908 31.4449 44.4854C31.4449 44.2801 31.5292 44.0831 31.6796 43.9374L32.8257 42.8414C32.977 42.6966 33.1815 42.6154 33.3948 42.6154C33.608 42.6154 33.8126 42.6966 33.9638 42.8414L34.5369 43.3855C34.6126 43.4578 34.6726 43.5438 34.7136 43.6385C34.7546 43.7332 34.7757 43.8348 34.7757 43.9374C34.7757 44.04 34.7546 44.1416 34.7136 44.2364C34.6726 44.3311 34.6126 44.4171 34.5369 44.4893L33.3988 45.5854C33.3249 45.6592 33.2364 45.7183 33.1386 45.7591C33.0409 45.7999 32.9357 45.8216 32.8291 45.8231C32.7225 45.8245 32.6167 45.8056 32.5178 45.7675C32.4189 45.7294 32.3287 45.6728 32.2527 45.6009V45.5854ZM37.2247 44.878C38.0319 45.6553 38.161 46.4948 37.9592 46.6892L37.3942 47.2333C37.3008 47.2756 37.1988 47.2975 37.0956 47.2975C36.9923 47.2975 36.8904 47.2756 36.7969 47.2333C36.3034 47.092 35.8596 46.8231 35.5136 46.456L35.11 46.0673L35.675 45.5154C36.1033 45.1004 36.354 44.5455 36.3772 43.9607L37.1844 44.7381L37.2247 44.878ZM48.2585 32.4097L45.9743 30.2098L44.5214 28.8184L40.8166 25.2505L43.1008 23.0507L50.5186 30.1943L48.2585 32.4097Z" fill="#9F6D17"/>
</svg>
