<svg width="68" height="68" viewBox="0 0 68 68" fill="none" xmlns="http://www.w3.org/2000/svg">
<circle cx="33.6993" cy="34.3007" r="33.6993" fill="#DADFFE"/>
<path d="M13.3707 48.2167H27.1379C27.3325 48.2167 27.519 48.1394 27.6566 48.0019C27.7941 47.8644 27.8714 47.6778 27.8714 47.4834C27.8695 45.8036 27.2012 44.1931 26.0132 43.0053C24.8251 41.8176 23.2144 41.1494 21.5342 41.1475H18.9671C17.2882 41.1513 15.6794 41.8204 14.4929 43.0079C13.3065 44.1955 12.6392 45.8048 12.6373 47.4834C12.6373 47.6778 12.7145 47.8644 12.8521 48.0019C12.9896 48.1394 13.1762 48.2167 13.3707 48.2167ZM18.9744 42.6141H21.5416C22.7052 42.6164 23.8297 43.0344 24.712 43.7929C25.5943 44.5513 26.1764 45.6002 26.3531 46.75H14.1629C14.3396 45.6002 14.9217 44.5513 15.804 43.7929C16.6864 43.0344 17.8108 42.6164 18.9744 42.6141Z" fill="#161E8B"/>
<path d="M20.258 39.9884C20.9572 39.9884 21.6407 39.7811 22.2221 39.3927C22.8035 39.0044 23.2566 38.4523 23.5242 37.8065C23.7918 37.1607 23.8618 36.45 23.7254 35.7644C23.5889 35.0788 23.2522 34.449 22.7578 33.9547C22.2634 33.4604 21.6335 33.1237 20.9477 32.9873C20.2619 32.851 19.5511 32.921 18.9051 33.1885C18.2591 33.456 17.7069 33.909 17.3185 34.4903C16.93 35.0715 16.7227 35.7549 16.7227 36.4539C16.7227 37.3913 17.0951 38.2903 17.7581 38.9532C18.4211 39.616 19.3203 39.9884 20.258 39.9884ZM20.258 34.386C20.6671 34.386 21.067 34.5073 21.4071 34.7345C21.7472 34.9618 22.0124 35.2847 22.1689 35.6626C22.3255 36.0404 22.3664 36.4562 22.2866 36.8573C22.2068 37.2585 22.0098 37.6269 21.7205 37.9161C21.4313 38.2053 21.0627 38.4023 20.6615 38.4821C20.2603 38.5619 19.8444 38.5209 19.4664 38.3644C19.0885 38.2079 18.7655 37.9428 18.5382 37.6028C18.3109 37.2627 18.1896 36.8629 18.1896 36.4539C18.1896 35.9055 18.4075 35.3795 18.7954 34.9917C19.1833 34.6039 19.7094 34.386 20.258 34.386Z" fill="#161E8B"/>
<path d="M48.8412 41.1475H46.2741C44.5939 41.1494 42.9832 41.8176 41.7951 43.0053C40.6071 44.1931 39.9388 45.8036 39.9369 47.4834C39.9369 47.6778 40.0142 47.8644 40.1517 48.0019C40.2893 48.1394 40.4758 48.2167 40.6704 48.2167H54.4449C54.6394 48.2167 54.826 48.1394 54.9635 48.0019C55.1011 47.8644 55.1784 47.6778 55.1784 47.4834C55.1764 45.8036 54.5081 44.1931 53.3201 43.0053C52.1321 41.8176 50.5213 41.1494 48.8412 41.1475ZM41.4625 46.75C41.6392 45.6002 42.2213 44.5513 43.1036 43.7929C43.986 43.0344 45.1105 42.6164 46.2741 42.6141H48.8412C50.0048 42.6164 51.1293 43.0344 52.0116 43.7929C52.894 44.5513 53.476 45.6002 53.6528 46.75H41.4625Z" fill="#161E8B"/>
<path d="M47.5577 39.9884C48.2569 39.9884 48.9404 39.7811 49.5218 39.3927C50.1032 39.0044 50.5563 38.4523 50.8239 37.8065C51.0914 37.1607 51.1615 36.45 51.025 35.7644C50.8886 35.0788 50.5519 34.449 50.0575 33.9547C49.5631 33.4604 48.9331 33.1237 48.2474 32.9873C47.5616 32.851 46.8507 32.921 46.2047 33.1885C45.5588 33.456 45.0066 33.909 44.6181 34.4903C44.2297 35.0715 44.0223 35.7549 44.0223 36.4539C44.0223 37.3913 44.3948 38.2903 45.0578 38.9532C45.7208 39.616 46.62 39.9884 47.5577 39.9884ZM47.5577 34.386C47.9667 34.386 48.3666 34.5073 48.7068 34.7345C49.0469 34.9618 49.312 35.2847 49.4686 35.6626C49.6251 36.0404 49.6661 36.4562 49.5863 36.8573C49.5065 37.2585 49.3095 37.6269 49.0202 37.9161C48.731 38.2053 48.3624 38.4023 47.9612 38.4821C47.56 38.5619 47.1441 38.5209 46.7661 38.3644C46.3882 38.2079 46.0651 37.9428 45.8379 37.6028C45.6106 37.2627 45.4893 36.8629 45.4893 36.4539C45.4893 35.9055 45.7072 35.3795 46.0951 34.9917C46.483 34.6039 47.0091 34.386 47.5577 34.386Z" fill="#161E8B"/>
<path d="M27.0207 29.5608H40.7952C40.9898 29.5608 41.1763 29.4835 41.3139 29.346C41.4514 29.2085 41.5287 29.022 41.5287 28.8275C41.5268 27.1477 40.8585 25.5373 39.6705 24.3496C38.4824 23.1618 36.8717 22.4936 35.1915 22.4917H32.6244C30.9443 22.4936 29.3335 23.1618 28.1455 24.3496C26.9575 25.5373 26.2892 27.1477 26.2872 28.8275C26.2872 29.022 26.3645 29.2085 26.5021 29.346C26.6396 29.4835 26.8262 29.5608 27.0207 29.5608ZM32.6244 23.9583H35.1915C36.3552 23.9606 37.4796 24.3786 38.362 25.1371C39.2443 25.8955 39.8264 26.9443 40.0031 28.0942H27.8128C27.9896 26.9443 28.5716 25.8955 29.454 25.1371C30.3363 24.3786 31.4608 23.9606 32.6244 23.9583Z" fill="#161E8B"/>
<path d="M33.9079 21.3329C34.6071 21.3329 35.2906 21.1256 35.872 20.7372C36.4534 20.3488 36.9065 19.7968 37.1741 19.1509C37.4417 18.5051 37.5117 17.7944 37.3753 17.1087C37.2389 16.4231 36.9022 15.7933 36.4077 15.2989C35.9133 14.8046 35.2834 14.468 34.5976 14.3316C33.9118 14.1952 33.201 14.2652 32.555 14.5327C31.909 14.8003 31.3568 15.2533 30.9684 15.8346C30.5799 16.4158 30.3726 17.0992 30.3726 17.7983C30.3726 18.7357 30.745 19.6348 31.408 20.2976C32.071 20.9605 32.9703 21.3329 33.9079 21.3329ZM33.9079 15.7303C34.317 15.7303 34.7169 15.8516 35.057 16.0788C35.3972 16.3061 35.6623 16.629 35.8188 17.0069C35.9754 17.3848 36.0163 17.8006 35.9365 18.2017C35.8567 18.6029 35.6597 18.9713 35.3705 19.2606C35.0812 19.5498 34.7126 19.7467 34.3114 19.8265C33.9102 19.9063 33.4943 19.8653 33.1163 19.7088C32.7384 19.5523 32.4154 19.2873 32.1881 18.9472C31.9608 18.6071 31.8395 18.2073 31.8395 17.7983C31.8395 17.2498 32.0574 16.7238 32.4453 16.336C32.8332 15.9482 33.3593 15.7303 33.9079 15.7303Z" fill="#161E8B"/>
<path d="M33.9079 32.1348C33.7134 32.1348 33.5268 32.212 33.3893 32.3496C33.2517 32.4871 33.1744 32.6736 33.1744 32.8681V37.268L29.7712 40.6706C29.6944 40.7364 29.632 40.8173 29.588 40.9082C29.544 40.9992 29.5192 41.0983 29.5153 41.1993C29.5114 41.3003 29.5284 41.401 29.5653 41.4951C29.6022 41.5892 29.6581 41.6747 29.7296 41.7462C29.8011 41.8176 29.8866 41.8735 29.9807 41.9104C30.0748 41.9473 30.1755 41.9643 30.2765 41.9604C30.3776 41.9565 30.4767 41.9318 30.5677 41.8877C30.6587 41.8437 30.7396 41.7814 30.8053 41.7046L33.9079 38.632L37.0032 41.7266C37.1435 41.8467 37.324 41.9095 37.5086 41.9024C37.6932 41.8953 37.8683 41.8188 37.9989 41.6882C38.1295 41.5576 38.206 41.3825 38.2132 41.1979C38.2203 41.0134 38.1575 40.8329 38.0373 40.6926L34.6414 37.29V32.8901C34.6443 32.7919 34.6275 32.6942 34.592 32.6027C34.5565 32.5112 34.5029 32.4277 34.4345 32.3573C34.3661 32.2868 34.2842 32.2308 34.1938 32.1926C34.1033 32.1544 34.0061 32.1347 33.9079 32.1348Z" fill="#161E8B"/>
</svg>
