<svg width="68" height="68" viewBox="0 0 68 68" fill="none" xmlns="http://www.w3.org/2000/svg">
<circle cx="33.6993" cy="34.3007" r="33.6993" fill="#DADFFE"/>
<path d="M53.3726 39.1154L53.0002 36.1363C52.7932 34.3158 51.5517 32.8676 49.9376 32.2469C50.8481 31.4194 51.3861 30.2609 51.3861 28.9368C51.3861 26.4542 49.3582 24.4268 46.8751 24.4268C44.392 24.4268 42.3641 26.4542 42.3641 28.9368C42.3641 30.2609 42.9435 31.4194 43.8126 32.2469C42.1986 32.8676 40.957 34.3158 40.7501 36.1363L40.3776 39.1568C40.2534 40.1085 40.9156 41.0188 41.8261 41.2256C43.4401 41.5567 45.1369 41.7222 46.8337 41.7222C48.5305 41.7222 50.2273 41.5567 51.8414 41.2256C52.8346 40.9774 53.4554 40.0671 53.3726 39.1154ZM46.8751 25.9163C48.5305 25.9163 49.8963 27.2817 49.8963 28.9368C49.8963 30.5919 48.5305 31.9573 46.8751 31.9573C45.2197 31.9573 43.854 30.5919 43.854 28.9368C43.854 27.2404 45.2197 25.9163 46.8751 25.9163ZM51.5931 39.6947C48.5719 40.3154 45.1783 40.3154 42.1572 39.6947C41.9916 39.6533 41.8675 39.4878 41.9089 39.3223L42.2813 36.3018C42.4882 34.6881 43.854 33.4469 45.5094 33.4469H48.3236C49.979 33.4469 51.3447 34.6881 51.5517 36.3018L51.9241 39.281C51.8828 39.4878 51.7586 39.6533 51.5931 39.6947Z" fill="#161E8B"/>
<path d="M27.0514 39.1154L26.6789 36.1363C26.472 34.3158 25.2304 32.8676 23.6164 32.2469C24.5269 31.4194 25.0649 30.2609 25.0649 28.9368C25.0649 26.4542 23.037 24.4268 20.5539 24.4268C18.0708 24.4268 16.0429 26.4542 16.0429 28.9368C16.0429 30.2609 16.6223 31.4194 17.4914 32.2469C15.8773 32.8676 14.6358 34.3158 14.4288 36.1363L14.0564 39.1568C13.9322 40.1085 14.5944 41.0188 15.5049 41.2256C17.1189 41.5567 18.8157 41.7222 20.5125 41.7222C22.2093 41.7222 23.9061 41.5567 25.5201 41.2256C26.5134 40.9774 27.1342 40.0671 27.0514 39.1154ZM20.5539 25.9163C22.2093 25.9163 23.575 27.2817 23.575 28.9368C23.575 30.5919 22.2093 31.9573 20.5539 31.9573C18.8985 31.9573 17.5327 30.5919 17.5327 28.9368C17.5327 27.2404 18.8985 25.9163 20.5539 25.9163ZM25.2718 39.6947C22.2507 40.3154 18.8571 40.3154 15.8359 39.6947C15.6704 39.6533 15.5462 39.4878 15.5876 39.3223L15.9187 36.3018C16.1256 34.6881 17.4914 33.4469 19.1468 33.4469H21.961C23.6164 33.4469 24.9821 34.6881 25.1891 36.3018L25.5615 39.281C25.5615 39.4878 25.4374 39.6533 25.2718 39.6947Z" fill="#161E8B"/>
<path d="M26.0167 25.9176C26.2237 25.9176 26.472 25.8349 26.5961 25.628C28.0033 23.8487 30.6933 22.7728 33.5489 22.7728C35.7837 22.7728 37.8944 23.4349 39.3843 24.5935L38.1013 24.6349C37.6875 24.6349 37.3564 25.0073 37.3564 25.4211C37.3564 25.8349 37.6875 26.1659 38.1013 26.1659C38.1013 26.1659 38.1013 26.1659 38.1427 26.1659L41.2053 26.0831C41.6191 26.0831 41.9502 25.7107 41.9502 25.2969L41.8674 22.2349C41.8674 21.8211 41.495 21.4901 41.0811 21.4901C40.6672 21.4901 40.3362 21.8625 40.3362 22.2763L40.3775 23.4763C38.598 22.0694 36.1562 21.2832 33.5075 21.2832C30.1139 21.2832 27.0928 22.5659 25.3546 24.7176C25.1063 25.0487 25.1476 25.5038 25.4787 25.7935C25.6857 25.8762 25.8512 25.9176 26.0167 25.9176Z" fill="#161E8B"/>
<path d="M40.6672 42.799C39.2601 44.5779 36.5701 45.6534 33.7145 45.6534C31.4797 45.6534 29.369 44.9915 27.8791 43.8332L29.1621 43.7919C29.5759 43.7919 29.907 43.4195 29.907 43.0059C29.907 42.5922 29.5345 42.2612 29.1207 42.2612L26.0582 42.344C25.8512 42.344 25.6857 42.4267 25.5202 42.5922C25.396 42.7577 25.3132 42.9231 25.3132 43.13L25.396 46.1912C25.396 46.6049 25.7271 46.9359 26.1409 46.9359C26.1409 46.9359 26.1409 46.9359 26.1823 46.9359C26.5962 46.9359 26.9273 46.5636 26.9273 46.1499L26.8445 44.9916C28.6241 46.3981 31.0658 47.1841 33.7145 47.1841C37.1081 47.1841 40.1292 45.9017 41.8674 43.7505C42.1157 43.4195 42.0743 42.9645 41.7433 42.6749C41.4122 42.4267 40.9155 42.5094 40.6672 42.799Z" fill="#161E8B"/>
<path d="M29.1206 37.958L32.6384 41.4749C32.9281 41.7646 33.3419 41.9301 33.7144 41.9301C34.1282 41.9301 34.5007 41.7646 34.7904 41.4749L38.3909 37.8752C39.0531 37.2132 39.3842 36.3029 39.3428 35.3927C39.3014 34.4824 38.8462 33.5721 38.1426 32.9929C36.8597 31.9585 34.9559 32.0412 33.7144 33.1997C33.0522 32.5377 32.1417 32.2067 31.2313 32.2481C30.3208 32.2895 29.4103 32.7446 28.8309 33.448C27.7549 34.7306 27.879 36.7167 29.1206 37.958ZM30.1138 34.5238C30.4035 34.1514 30.8174 33.9445 31.2726 33.9445C31.314 33.9445 31.314 33.9445 31.3554 33.9445C31.7693 33.9445 32.1831 34.11 32.5142 34.3996L33.0936 34.9789C33.4247 35.3099 33.9627 35.3099 34.2938 34.9789L34.7904 34.4824C35.4112 33.8617 36.4044 33.779 37.0252 34.3169C37.3977 34.6065 37.6046 35.0203 37.6046 35.4754C37.646 35.9305 37.4391 36.3857 37.1494 36.6753L33.7144 40.1509L30.3208 36.7581C29.7 36.1374 29.6172 35.1444 30.1138 34.5238Z" fill="#161E8B"/>
<path d="M34.5422 29.5165V27.9445C34.5422 27.4895 34.1697 27.1172 33.7145 27.1172C33.2592 27.1172 32.8868 27.4895 32.8868 27.9445V29.5165C32.8868 29.9716 33.2592 30.3439 33.7145 30.3439C34.1697 30.3439 34.5422 29.9716 34.5422 29.5165Z" fill="#161E8B"/>
<path d="M30.238 30.6751C30.4036 30.9233 30.6519 31.0887 30.9416 31.0887C31.0658 31.0887 31.2313 31.0474 31.3555 30.9646C31.5624 30.8405 31.6865 30.6751 31.7279 30.4682C31.7693 30.2614 31.7693 30.0132 31.6452 29.8477L30.8588 28.4412C30.7347 28.2344 30.5691 28.1103 30.3622 28.0689C30.1553 28.0276 29.9069 28.0276 29.7414 28.1517C29.3275 28.3999 29.2034 28.8963 29.4517 29.2686L30.238 30.6751Z" fill="#161E8B"/>
<path d="M36.0734 30.9644C36.1975 31.0471 36.3631 31.0885 36.4872 31.0885C36.7769 31.0885 37.0666 30.923 37.1908 30.6748L37.9771 29.3097C38.1012 29.1028 38.1012 28.896 38.0598 28.6891C38.0185 28.4823 37.8529 28.2755 37.6874 28.1927C37.2735 27.9445 36.7769 28.11 36.57 28.4823L35.7837 29.8061C35.6595 30.0129 35.6595 30.2198 35.7009 30.4266C35.7423 30.6748 35.8664 30.8403 36.0734 30.9644Z" fill="#161E8B"/>
</svg>
